 <svg class="the-svg-girl" width="599" height="641" viewBox="0 0 599 641" xmlns="http://www.w3.org/2000/svg">
       <g fill="#222"><path d="M355.235 119.72c.981-.281 2.575.024 3.58-.002 3.854-.099 7.519-.022 11.316.837 4.626 1.048 8.972 3.224 13.284 5.155 1.456.652 2.728-1.501 1.261-2.158-8.621-3.861-16.26-6.581-25.861-6.334-2.766.071-7.185-.376-8.764 2.706-1.829 3.573 3.145 4.409 5.552 4.779 1.573.241 2.252-2.168.665-2.411-2.258-.346-4.931-1.457-1.033-2.572"></path>
        <path d="M181.792 121.93c3.692-2.658 7.345-5.235 11.842-6.192 3.165-.673 6.36-1.294 9.565-1.754 1.795-.258 3.609-.476 5.428-.33 1.301.054 2.543.345 3.727.873.837 1.945.298 3.026-1.619 3.241-1.491.561-.844 2.979.665 2.411 2.455-.924 5.796-2.805 4.261-5.942-1.697-3.468-7.819-3.275-10.858-2.972-4.696.468-9.77 1.208-14.279 2.609-3.614 1.124-6.956 3.71-9.994 5.897-1.294.932-.047 3.101 1.262 2.159"></path><path d="M208.657 121.306c-5.654.219-11.467.436-17.004 1.761-3.252.778-6.327 2.436-9.336 3.869-1.451.691-.184 2.848 1.262 2.158 3.844-1.83 7.404-3.437 11.615-4.121 3.793-.617 7.535-.941 11.369-1.08 1.474-.053 3.264-.413 4.729-.178 2.599.416 4.372 2.395-.548 4.256-1.491.564-.845 2.981.664 2.411 2.807-1.062 5.895-3.035 4.493-6.495-1.257-3.103-4.447-2.689-7.244-2.581"></path>
        <path d="M212.689 134.958c-1.062-4.51-12.474-3.872-15.521-3.353-4.185.714-8.357 3.507-12.167 5.327-1.452.693-.185 2.849 1.261 2.159 3.253-1.554 6.625-3.673 10.076-4.727 2.387-.73 5.235-.459 7.707-.325 1.182.064 2.669.009 3.754.47 3.802 1.616-.67 2.165-2.534 2.641-5.605 1.431-9.745 2.442-14.673 5.484-3.647 2.251-7.187 4.665-10.77 7.015-1.34.879-.089 3.045 1.262 2.159 4.953-3.25 9.901-7.152 15.267-9.688 2.954-1.397 17.516-2.155 16.338-7.162"></path>
        <path d="M134.28 285.58c-.389 1.608-1.041 12.384-2.102 12.47-.285.024-4.111-10.727-5.198-12.098-4.87-6.144-6.571 6.548-7.185 9.277-.094.416-.258.886-.401 1.357-.589-1.731-1.844-3.841-2.392-5.158-.678-1.629-1.808-5.773-4.044-6.021-4.149-.461-5.595 11.773-6.164 14.505-.327 1.57 2.082 2.241 2.41.664.637-3.054 1.333-6.136 2.306-9.102.165-.498.737-2.996 1.204-3.125.242-.068.451.654.851 1.436.998 1.949 1.715 4.045 2.539 6.072.561 1.381 1.451 5.177 3.476 5.103 2.102-.077 2.415-4.123 2.723-5.514.422-1.903.748-3.838 1.285-5.713.887-3.101 1.153-2.998 2.533-.092 1.234 2.599 2.543 9.12 5.334 10.594 4.707 2.488 4.738-11.93 5.235-13.99.378-1.564-2.032-2.231-2.41-.665"></path>
        <path d="M396.093 340.658c-1.173-1.931-1.888-4.571-2.429-6.765-.668-2.707-.777-2.655 1.799-1.438 6.249 2.953 10.672 7.096 10.772 14.287-3.919-1.063-8.092-2.709-10.142-6.084m4.216-16.464c-6.229 6.091-12.963-4.269-17.002-7.988-3.52-3.239-6.986-4.166-11.666-3.881-13.095.798-26.299.99-39.419.795-9.749-.145-19.503-.337-29.243-.795-4.619-.217-9.386-.3-13.907-1.349-.574-.132-1.136-.3-1.702-.46-.184-.515-.366-1.031-.563-1.548-2.529-6.657-7.287-13.23-3.17-20.176 3.069-5.177 8.353-8.407 12.875-12.132 3.055-2.514 5.785-6.09 5.274-10.31-.05-.419-.102-.73-.157-.99 16.813 6.214 34.288 10.92 50.659 18.168 10.611 4.696 21.076 10.584 32.507 13.078 3.985.869 7.758.853 11.797.534 4.635-.366 8.945.969 12.861 3.387-6.907 4.729-2.63 17.296-9.144 23.667m-49.791 4.228c1.014 5.673 1.292 11.511 1.643 17.254 1.017 16.597 1.377 33.244 1.531 49.868.119 12.956-.694 25.872-.672 38.806.017 10.774 1.736 21.673 1.416 32.409-.104 3.476-1.182 5.838-4.701 4.37-.288-.12-.555-.279-.817-.447-.164-.183-.381-.32-.615-.398-.347-.23-.698-.452-1.09-.61-4.418-1.783-10.284-1.167-14.906-1.064-5.442.122-11.065 1.01-16.492.634-5.026-.348-4.5-3.81-4.494-7.949.007-5.773-.575-11.34-1.382-17.047-2.378-16.791-5.344-33.503-8.21-50.216-2.235-13.032-4.248-26.104-6.551-39.124-1.642-9.284-3.606-18.639-4.264-28.056-.327-4.687-1.218-9.099-2.584-13.486l.077.021c3.61.841 7.344 1.039 11.033 1.254 13.213.769 26.537 1.144 39.775 1.037 1.804-.015 3.607-.054 5.412-.079 1.85 4.413 5.035 8.042 5.891 12.823m-7.413 156.437c-1.292 7.216-2.239 14.506-2.921 21.804-.628 6.715-1.301 13.683-.612 20.422.738 7.198 2.882 14.393 4.018 21.566.606 3.828 1.123 7.684 1.888 11.485.333 1.654 1.157 2.756-.651 3.843-1.98 1.189-6.555.299-8.63.141-5.014-.382-10.716-1.721-15.657-.475-.4-.508-.788-1.053-1.164-1.641-1.688-2.638-2.813-5.556-3.948-8.459-2.072-5.302.353-9.958 1.158-15.276 1.161-7.677.384-16.068.258-23.801-.233-14.353-2.289-28.56-2.896-42.906 5.3 1.055 11.423-.25 16.763-.408 4.709-.141 10.59-.88 15.111.7l.434.167c-1.867 3.883-2.418 8.743-3.151 12.838m-12.627 87.64c4.154.616 8.535-.062 12.697-.379 2.287-.174 5.388-.88 7.505.309 3.5 1.965 6.462 8.638 7.992 12.086 4.168 9.388 4.676 20.214 2.999 30.244-1.211 7.239-3.939 14.481-10.358 18.596-7.458 4.782-18.619 7.592-26.004 1.49-7.678-6.346-12.178-17.048-13.32-26.733-1.202-10.208 1.682-20.682 2.671-30.853.206-2.114.125-4.425.521-6.514l.075-.434c.342-.629.852-1.212 1.328-1.696.922-.935 1.959-1.618 3.076-2.118 2.83 3.139 6.456 5.354 10.818 6.002m-31.513-334.54c.076-.164.114-.419.129-.725.07.127.043.356-.129.725m-5.071 8.322c.35-1.615.703-3.238 1.212-4.803.302-.931.607-2.347 1.256-3.08.084-.095.302-.264.579-.448.714 2.934 1.878 4.605 3.801 1.806 1.974-2.87.385-5.035-1.853-5.303-.146-1.145-.314-2.272-.331-2.913-.053-1.99-.263-3.925-.486-5.905-.178-1.582-.763-3.847-.331-5.413l.978-1.331c1.436.032 3.034-1.077 3.474-2.354.137-.402-.013-.931-.322-1.216-1-.922-2.482-.729-3.715-.1-.236-.527-.343-1.315-.568-1.859-.609-1.475-1.351-2.313-1.464-3.99-.159-2.36 1.117-4.762 1.714-7.04l.138-.501.04.004c1.39.095 1.57-1.765.555-2.337.257-1.284.341-2.601-.213-3.587-.283-.5-.875-.694-1.412-.574-1.43.319-2.893 2.552-2.731 3.976.115 1.024.586 1.614 1.248 1.969-.07.386-.142.764-.234 1.095-.575 2.064-1.618 4.163-1.733 6.316-.131 2.481 1.114 4.047 2.008 6.234l.706 1.973c-1.904 2.788-.805 7.088-.466 10.133.067.602.171 4.403.651 7.915-.537.283-1.055.673-1.516 1.215-1.213 1.427-1.942 3.185-2.466 5.056-3.575-13.78-3.591-28.601-4.502-42.705-.09-1.4.365-6.414-1.117-7.545-.856-.653-2.034-.308-2.229.818-.086.499.097.907.396 1.182l-.023.038c-.643 1.306.49 5.84.577 7.267.419 6.929.907 13.851 1.491 20.768.731 8.656 2.133 16.748 4.417 24.731-.259 1.368-.52 2.708-.883 3.936-1.577 5.347-5.166 6.179-10.084 4.827-.233-.065-.443-.059-.632-.011-7.038-2.763-14.012-5.662-20.807-8.794-13.466-6.205-26.491-13.317-39.826-19.795l.008-.115c-.4-14.257-.469-30.079-5.032-43.71l-.071-.158c7.117.875 14.185 2.179 21.333 2.875 6.988.681 14.17.275 21.179.22 5.983-.048 18.471 1.169 26.86-1.731.384.164.802.299 1.276.385 5.031.911 10.674.175 15.729.024 7.612-.226 15.223-.539 22.822-1.033 8.875-.576 17.857.235 26.688-.804 1.595-.187 3.187-.38 4.777-.568 1.102 9.327-2.11 19.072-3.026 28.309-.803 8.095-1.645 16.183-2.584 24.264-1.142 9.821-2.808 19.608-3.783 29.443-.457 4.618-1.076 10.304.33 14.925-13.618-5.291-27.616-9.643-41.363-14.597-1.4-.505-2.804-1.013-4.208-1.523-2.478-5.057-4.517-10.488-6.232-15.861m-6.696 11.09c.974-.256 1.901-.679 2.735-1.337 1.729-1.364 2.464-3.372 2.981-5.438 1.057 3.177 2.26 6.352 3.625 9.553.117.277.254.551.385.827-3.241-1.184-6.486-2.381-9.726-3.605m-74.96-34.737c-3.94-1.817-8.514-4.158-13.3-6.048 6.259-1.699 9.561-8.102 10.89-14.474 1.113-5.335 2.041-10.713 2.908-16.097 3.417 12.296 3.593 26.064 3.933 38.711-1.473-.704-2.947-1.408-4.431-2.092m-14.673-23.228c-.525-6.072-1.535-12.144-2.864-18.098 2.715.077 5.53-.256 7.465-.237 2.935.03 5.849.23 8.752.524-.768 4.882-1.586 9.758-2.484 14.619-1.381 7.47-3.014 17.936-12.386 18.304 2.79-3.734 1.811-11.706 1.517-15.112m-5.188 14.602c-.231.043-.408.134-.547.252-1.31-.325-2.621-.585-3.924-.758-.2-.198-.476-.328-.839-.328-.249 0-.455.064-.627.166-4.092-.337-8.079.246-11.707 2.34-2.071 1.195-3.89 2.698-5.498 4.411.033-1.061-.037-2.128-.237-3.191-1.197-6.341-2.426-12.575-2.615-19.06-.33-11.342 5.072-21.526 7.207-32.45 1.84-9.414-1.996-19.461-4.336-28.39-1.418-5.407-1.88-10.087-.701-15.678 1.441-6.84 7.096-13.696 12.371-18.22 2.134-1.83 5.7-1.93 9.268-1.381.358.651 1.302.765 1.882.34 2.512.533 4.897 1.303 6.634 1.924 1.381.493 5.015 1.176 3.793 3.466-.757 1.417-5.057 1.196-6.446 1.209-4.031.039-8.652-.153-12.581-1.004-1.569-.339-2.239 2.07-.665 2.411.746.161 1.554.322 2.4.475-.295.362-.622.684-1.01.902-1.403.787-.144 2.947 1.262 2.158 1.036-.58 1.87-1.57 2.48-2.625 4.913.681 10.564.877 14.469-.706 5.531-2.242 3.518-6.027-.824-7.855-2.785-1.173-5.868-2.129-9.014-2.705.117-7.249.246-14.498.408-21.746.091-4.053.178-8.106.356-12.156.223-5.09-.878-10.326-.468-15.362.232-2.85.755-3.244 3.609-2.948 2.714.282 5.426.586 8.137.891 2.707.304 5.373.401 8.099.49 8.822.289 17.641.257 26.457.688 7.112.348 14.211.701 21.334.731 3.646.015 7.307.037 10.949-.162 3.283-.181 7.73-.777 10.62 1.152-1.282 1.882-2.238 3.926-2.677 5.984-1.132 5.301-.232 11.416.074 16.759.392 6.843.976 13.676 1.296 20.523.383 8.176-.829 16.374.236 24.523 1.596 12.217.258 24.999-.263 37.266-.259 6.091-.782 12.235-.72 18.334.022 2.325.143 4.841 1.202 6.647-5.252 1.576-11.555 1.067-16.613 1.137-7.478.103-14.959.169-22.438.119-7.754-.051-15.323-1.478-22.991-2.518-5.393-.732-10.812-1.383-16.259-1.485-3.13-.059-10.336 1.377-12.86-.911-2.451-2.221-.625-10.728-.52-13.927.137-4.149.152-8.326.505-12.463.137-1.603-2.364-1.594-2.5 0-.334 3.905-.353 7.845-.482 11.761-.136 4.158-1.361 9.621-.432 13.657.635 2.76 2.823 3.931 5.467 4.38 1.09 4.763 1.945 9.602 2.552 14.447.424 3.401 2.916 17.519-2.273 18.486m67.322-202.419c7.415-6.953 19.606-9.897 29.558-8.948 1.558.149 3.103.428 4.615.819-5.035 1.8-9.69 6.737-12.403 10.328-4.025 5.328-7.175 12.826-3.53 18.764-9.613-.25-16.975 6.933-20.349 15.215-3.808-.055-7.613-.171-11.419-.353l-.134-.005c.74-12.354 4.382-27.115 13.662-35.82m39.41-6.144c1.61.839 3.128 1.861 4.487 3.115 5.159 4.757 6.507 11.408 8.505 17.836 2.03 6.529 5.613 13.116 11.238 16.959-3.513-.134-7.026-.248-10.535-.437-4.599-.247-10.101-1.124-15.172-.761-.398-2.834-2.656-4.513-5.437-5.708-3.14-1.349-7.128-2.824-10.833-3.511l-.105-.131c-5.354-5.55-1.017-13.669 3.055-18.607 3.087-3.744 9.298-10.139 14.797-8.755m-8.425 38.342c-2.542 1.188-5.059 3.153-7.092 5.519-4.319-3.239-11.68-1.616-16.68-1.536-2.213.035-4.424.036-6.636.023 2.826-6.461 8.056-11.622 15.432-12.545 3.776-.472 17.89 1.968 19.355 7.221-1.538.267-3.015.68-4.379 1.318m-7.82 121.219c.545-12.636 1.294-25.304 1.207-37.956-.038-5.323-1.036-10.528-1.029-15.845.001-.833.009-1.665.021-2.496 2.795 17.756 5.834 35.407 6.222 53.466.091 4.218 1.599 11.544-1.36 15.005-1.212 1.418-2.673 2.445-4.28 3.211-2.543-3.014-.931-11.942-.781-15.385m89.471 15.079c.161 5.756-1.91 11.818-3.592 17.282-.143.141-.259.328-.32.577-.104.43-.188.856-.256 1.279-1.892 6.155-4.039 12.228-5.911 18.388-1.286 4.234-1.768 7.209-.746 11.477.757 3.161 1.223 6.461 1.767 9.743-2.973-5.339-6.423-10.446-10.539-14.852.557-5.428 1.076-10.86 1.682-16.281.98-8.758 3.757-17.788 2.804-26.662 5.024-.568 10.042-1.018 15.111-.951m2.484.086l.643.022c.665.039 1.264-.603 1.25-1.25l-.806-37.872c2.157 1.648 3.874 3.846 4.862 7.087.687 2.258.471 3.702.341 6.335-.209 4.24-.467 8.479-.839 12.708-.324 3.693-.228 8.374-1.887 11.778-.369.755.055 1.997 1.079 1.881 4.552-.516 9.103-1.209 13.584-2.159 1.412-.299 2.993-.58 4.54-.982.007 9.646.501 19.249-1.178 28.837-.566 3.236-1.172 9.38-4.119 11.365-2.33 1.569-6.168.321-8.54-.575-7.327-2.767-14.424-9.357-13.105-17.672.408-1.332.813-2.664 1.196-4.004 1.4-4.907 3.1-10.297 2.979-15.499m24.956 20.549c.292-2.225.395-4.442.415-6.658 2.043 6.891 4.095 13.812 3.951 20.992-.266 13.144-6.512 26.655-16.205 35.534-2.985 2.733-7.367 6.228-11.708 5.392-5.368-1.034-7.755-5.812-8.954-10.601-1.493-5.961-2.314-12.107-3.644-18.111-.933-4.209.745-8.152 2.032-12.146.979-3.034 1.985-6.059 2.971-9.09 1.137 3.734 3.67 7.013 7.018 9.6 4.123 3.187 11.94 7.362 17.31 4.85 5.885-2.754 6.11-14.391 6.814-19.762m-245.48 111.785c.006 1.306.539 4.114-.01 4.925-1.152 1.702-7.457 1.73-9.089 1.907-5.428.587-10.916.697-16.37.861-10.484.314-21.006.887-31.489 1.042-.708.01-1.435.033-2.169.053.068-1.442.057-2.838.088-3.985.19-6.851-.23-13.725-.671-20.559-.452-7.004-1.028-13.998-1.526-20.999-.35-4.916-1.169-10.249-.631-15.178.092-.839.317-1.654.633-2.447 9.728.5 19.435.291 29.248.318 4.363.011 8.737.116 13.082.554 3.909.394 9.183.73 12.438 3.207 5.167 3.931 5.767 12.671 6.188 18.558.496 6.935.233 13.887.224 20.832-.003 3.224-.045 6.654.648 9.865-.344.186-.596.533-.594 1.046m-61.524 8.826c-3.212-.002-6.358-.33-8.624-2.109l-.022-.475c-.09-4.18.952-8.041 2.18-11.975 3.189-10.217 2.392-22.329 2.035-32.899-.192-5.696-.355-11.929-3.891-16.408 1.978.204 3.954.378 5.927.507-.173.522-.304 1.055-.378 1.599-.608 4.511.099 9.435.405 13.941.952 14.035 2.544 28.12 2.382 42.203-.014 1.273.119 3.47-.014 5.616m-2.675 5.948c-3.047.865-4.629-1.794-5.381-4.558 2.398.927 5.215.902 7.766.954-.353 1.779-1.043 3.223-2.385 3.604m19.502-81.171c10.232-2.351 25.151 1.493 31.225 10.822-4.038-.692-8.354-.723-11.848-.862-11.58-.461-23.059.041-34.565-.413 3.4-4.866 10.353-8.436 15.188-9.547m290.731-79.945c.265-.192.535-.371.794-.574.339-.266 1.001-.695 1.599-1.159.122.771.218 1.546.261 2.326.096 1.758.256 4.172-.764 5.679-.5.739-1.267 1.333-2.182 1.827.112-2.7.215-5.399.292-8.099m196.8 165.055c-8.993 5.909-19.621 9.062-30.001 11.525-13.126 3.116-26.544 4.962-39.956 6.304-23.687 2.369-47.551 3.14-71.35 3.008l-.812-.007c1.026-.433 2.046-.917 3.054-1.509 8.518-5.004 15.383-13.719 18.041-23.259 2.118-7.604 1.42-18.266-6.545-22.229-4.734-2.357-10.331-2.62-15.493-3.221-4.862-.567-9.648-1.288-14.537-1.619-5.522-.373-11.053-.573-16.577-.907-3.198-.193-6.474-.944-9.657-.313-.544.108-1.038.25-1.51.407-.074-.264-.237-.512-.526-.701-2.717-1.763-5.909-3.209-9.084-3.858-3.805-.778-7.589.247-11.424.086-10.875-.458-21.408-6.309-31.076-10.769-3.824-1.765-7.7-3.401-11.608-4.958.233-.265.337-.636.182-1.087-2.05-5.967-.591-13.859.25-19.835 1.278-9.076 2.444-18.162 3.483-27.268.138-1.224.267-2.449.398-3.673 5.407 6.255 9.59 13.779 13.034 21.231.074.159.167.281.271.379.152.416.312.829.482 1.239 3.296 7.927 11.535 10.312 18.654 5.937 10.72-6.587 17.986-19.593 20.663-31.583 3.155-14.139-2.195-26.585-5.366-40.145-.037-.161-.1-.292-.175-.407-.074-2.336-.111-4.674-.007-7.018 2.448-.955 4.501-2.455 5.176-5.182.465-1.884 1.59-11.748-2.432-10.76-.676.166-1.497.896-2.272 1.652.046-1.916.1-3.832.132-5.749.104-6.181-.494-12.498-.194-18.647.148-3.039.642-6.061 1.259-9.037.313-1.513 1.239-3.403.801-4.992-.59-2.143-3.024-3.649-4.737-4.78-5.26-3.474-11.437-6.324-17.39-8.417-5.808-2.042-13.682-1.545-19.762-1.953-3.117-.209-7.688-.742-10.145 1.78-2.496 2.561.271 4.832 2.61 6.123 1.409.778 2.672-1.38 1.261-2.159-5.933-3.276 4.907-3.338 6.801-3.207 3.293.228 6.582.496 9.87.769 3.693.306 7.122.391 10.589 1.818 5.08 2.09 10.319 4.349 14.904 7.405.894.595 2.153 1.258 2.768 2.146 1.253 1.808.272 3.508-.15 5.668-.749 3.824-1.385 7.813-1.196 11.719.379 7.881.284 15.776.059 23.669-3.784 2.484-8.103 3.781-12.551 4.529-1.584.266-.912 2.675.664 2.411 4.167-.701 8.177-1.908 11.797-3.964-.038 1.19-.078 2.38-.119 3.569-.045 1.293-.068 2.586-.081 3.877-2.821.881-6.137 1.242-8.248 1.628-2.635.482-5.289.879-7.948 1.22 1.864-5.575 1.562-12.689 1.906-18.222.313-5.023 1.105-9.685-.866-14.428-1.89-4.544-5.062-7.249-9.539-9.148-2.439-1.034-4.986-1.785-7.481-2.668-1.54-.544-10.558-4.278-7.628-5.82 1.299-.683 5.416 1.014 6.791 1.426 1.371.41 2.709.926 4.065 1.382 3.318 1.116 6.66 2.161 10 3.21 1.538.484 2.196-1.929.664-2.41-3.609-1.135-7.23-2.249-10.807-3.481-3.233-1.115-7.241-2.846-10.713-2.627-1.918.121-4.463 1.177-4.32 3.471.26 4.141 8.245 6.186 11.283 7.26 3.061 1.083 6.053 2.033 8.65 3.42l-.03.308.806 37.863c-12.793-.522-25.522 2.14-38.343 2.18-13.463.043-26.917 1.244-40.382 1.537-2.148.047-5.739.634-8.535.36 2.833-1.743 4.721-4.304 4.914-8.07.604-11.728.19-24.121-1.852-35.678-2.656-15.027-4.781-30.327-6.818-45.456l-.033-.14-.05-1.102c-.389-6.525-.907-13.041-1.243-19.569-.235-4.574-1.092-10.104.158-14.593 4.893-17.561 28.252-11.618 41.484-11.154 2.221.078 4.44.189 6.657.317l.084.004c8.53.492 17.034 1.293 25.556 2.034 5.202.453 10.291.981 15.503.65 7.052-.448 5.519 13.087 5.698 17.814.424 11.222.427 22.448.589 33.676-1.253-.25-2.564-.451-3.951-.644-4.585-.637-11.687-2.816-15.729.62-4.024 3.42 1.232 6.246 4.283 7.325 1.52.538 2.173-1.877.664-2.411-2.344-.828-4.28-2.238-1.748-3.772.851-.514 2.236-.454 3.168-.442 1.842.024 3.797.462 5.633.697 4.25.545 9.764.651 13.499 3.022 4.981 3.161 9.196 8.508 13.307 12.714 1.127 1.152 2.894-.616 1.768-1.768-3.476-3.557-6.979-7.111-10.652-10.466-2.456-2.245-4.975-3.48-7.763-4.279l.023-.282c-.162-11.136-.161-22.273-.57-33.404-.196-5.347.136-11.351-1.169-16.582-1.476-5.913-6.829-3.98-11.504-4.113-12.234-.348-24.439-2.256-36.658-2.991l-.238-.012c-15.619-4.057-13.726-22.51-21.488-33.359-2.174-3.04-4.942-5.328-8.055-6.966-.135-.126-.306-.228-.526-.286l-.107-.02c-5.052-2.483-10.942-3.332-16.681-2.938-9.975.686-20.781 4.288-27.384 12.121-7.991 9.478-11.413 22.903-12.151 35.094-9.634-.407-19.247-.562-28.887-.865-3.084-.097-6.167-.126-9.234-.462-2.487-.273-4.972-.559-7.459-.825-1.609-.171-4.828-1.098-6.35-.136-2.805 1.769-.985 9.84-.848 12.416.237 4.515.019 8.964-.109 13.473-.272 9.474-.428 18.951-.58 28.427-2.419-.276-4.839-.303-7.159-.001-1.793.233-2.494.721-3.76 1.999-3.176 3.207-6.189 6.715-8.916 10.309-8.486 11.182-3.773 24.037-.76 36.124 1.372 5.503 2.743 10.808 1.788 16.651-.953 5.837-3.365 11.739-4.917 17.447-2.18 8.017-2.861 15.081-1.899 23.416.451 3.903 1.25 7.704 1.952 11.561.481 2.652.234 5.187-.539 7.614-4.927 7.841-6.635 18.201-5.939 26.854 2.999 37.228 27.791 68.87 59.766 86.779 1.322.74 2.653 1.402 3.989 2.013l-.421-.013c-6.102-1.139-12.156-2.535-18.105-4.131-10.278-2.757-19.887-6.71-29.659-10.865-6.464-2.748-15.276-5.193-17.752-12.595-1.869-5.589-.982-12.353-.936-18.145.055-6.985.063-14.063-1.156-20.964-.835-4.731-2.367-10.25-6.417-13.272-1.469-1.094-3.225-1.866-5.122-2.427-7.316-15.593-32.444-18.659-45.41-9.222-2.457 1.789-5.38 4.204-7.156 7.052-3.543-.193-7.091-.486-10.646-.948-1.346-.175-1.533 1.711-.631 2.329 7.025 4.817 5.668 16.588 5.699 23.993.042 9.858-.633 19.019-3.125 28.524-.486 1.854-.95 4.029-1.188 6.267l-.174-.436c-1.512-4.614-1.269-10.232-1.454-15.04-.385-9.943-1.092-20.339.132-30.246.198-1.593-2.304-1.579-2.5 0-1.129 9.137-.519 18.691-.217 27.863.213 6.506-.84 17.479 4.145 22.78.234 2.426.932 4.709 2.39 6.504 2.077 2.557 7.151 4.159 9.428 1.086.871-1.176 1.305-2.789 1.54-4.489 4.218.034 8.423-.304 12.641-.441 10.456-.339 20.928-.392 31.376-.957 4.942-.267 11.338-.109 15.889-2.39 1.591-.797 2.074-1.879 2.162-3.156l.209.329c3.365 4.88 9.584 7.019 14.799 9.228 9.463 4.006 18.732 8.107 28.627 10.979 3.839 1.114 7.73 2.127 11.651 3.049-1.625.075-3.222.142-4.765.164-16.287.237-32.57.778-48.846 1.399-39.027 1.49-78.087 3.38-117.008 6.676-13.55 1.147-27.484 1.99-40.785 4.997-1.57.354-.906 2.765.664 2.41 11.5-2.599 23.489-3.434 35.204-4.48 18.014-1.609 36.065-2.794 54.118-3.848 36.751-2.146 73.56-3.816 110.368-4.545 6.496-.129 12.994-.235 19.49-.183 1.301.01 2.668-.032 4.04-.033 5.937 1.038 11.908 1.837 17.868 2.328.276.023.5-.037.68-.144 4.692.413 9.491.403 14.424.145 5.819-.305 11.598-1.042 17.403-1.505 3.146-.252 9.181-1.632 10.514 1.842 1.373 3.576.549 9.316.396 13.037-.17 4.139-.333 8.459-1.309 12.503-.377 1.563 2.033 2.231 2.411.665 1.596-6.616 1.673-13.942 1.477-20.703-.121-4.187.225-9.072-4.687-9.965-3.466-.629-7.318-.022-10.787.294-5.384.49-10.758 1.126-16.16 1.372-5.349.242-10.921.239-16.265-.248-16.788-1.53-31.342-13.357-43.566-23.967-15.324-13.301-26.378-30.782-31.704-50.37-3.383-12.436-4.999-25.628.257-37.656l.187-.243c.743-1.23 1.403-2.53 1.937-3.877 4.074-6.744 10.581-11.764 18.936-10.467 6.644 1.032 13.15 3.952 19.256 6.626 15.722 6.884 30.775 15.175 46.192 22.691 14.783 7.207 30.418 12.804 45.75 18.726l.535.201c.227.471.439.944.628 1.419l.028.162c.132.65.171 1.3.127 1.963-.258 3.859-3.355 6.178-6.15 8.342-6.194 4.797-15.25 11.51-13.77 20.543.715 4.364 2.785 8.604 4.665 12.849-5.274-1.879-10.336-4.413-15.836-5.587-6.228-1.33-12.729-.416-19.041-.354-8.836.088-17.561-.837-25.882-3.956-11.314-4.241-22.238-10.077-30.926-18.589-5.317-5.21-9.556-11.251-12.994-17.836-.744-1.427-2.903-.165-2.158 1.262 10.296 19.728 29.511 33.604 50.891 39.358 6.595 1.776 13.454 2.296 20.261 2.266 6.596-.03 13.482-1.076 19.968.429 5.886 1.366 11.278 4.243 17.018 6.068.511 1.282.973 2.567 1.341 3.858 1.504 5.295 1.595 10.656 2.291 16.07 1.256 9.789 3.174 19.488 4.852 29.21 2.272 13.172 4.346 26.382 6.598 39.559 2.798 16.369 5.874 32.765 7.83 49.261.29 2.439.492 4.859.543 7.317.068 3.282-.746 7.604.697 10.699.451.968 1.102 1.648 1.898 2.137.445 11.608 2.091 23.087 2.666 34.656.38 7.671.365 15.364.338 23.042-.009 2.697.151 5.483-.096 8.173-.419 4.578-2.888 9.103-2.467 13.756.38 4.208 3.153 9.495 5.372 12.999.274.433.564.852.861 1.264-1.156.558-2.254 1.304-3.261 2.317-2.296 2.307-2.117 4.105-2.367 7.2-.785 9.702-3.301 19.452-3.28 29.173.035 15.449 9.942 39.886 28.898 37.475 14.487-1.843 23.605-11.056 26.014-25.271 2.566-15.145-.071-30.683-9.78-42.829-2.771-3.467-5.835-3.357-10.05-3.058-8.286.588-16.051 1.472-21.864-3.887 6.484-1.243 14.728 1.675 20.767 1.099 5.352-.51 5.662-2.688 4.733-7.278-1.77-8.751-2.624-17.665-4.554-26.392-1.469-6.649-1.611-12.836-1.184-19.653.519-8.293 1.491-16.576 2.832-24.776.784-4.801 1.262-10.903 3.493-15.461 1.36.763 2.738 1.429 4.433 1.062 6.987-1.511 3.535-15.572 3.272-20.283-.879-15.741.027-31.31.058-47.035.036-18.814-.326-37.655-1.305-56.444-.368-7.054-.724-14.167-1.758-21.162-.785-5.308-3.788-9.004-5.876-13.767 5.037-.086 10.074-.195 15.107-.347 3.467-.105 6.937-.387 10.401-.475 6.736-.17 9.408 4.398 13.651 8.645 2.761 2.763 7.085 5.54 11.19 5.06 3.822-.448 5.801-3.937 7.216-7.152 2.167-4.923 2.335-9.738 3.348-14.848 1.12-5.656 7.044-5.318 11.497-4.868 9.465.955 19.035.635 28.473 1.948 9.946 1.383 24.116.497 26.234 13.023 1.783 10.54-4.859 21.616-12.592 28.23-4.134 3.537-9.125 6.321-14.576 7.052-.392.053-.793.07-1.189.102-1.706-.034-3.412-.063-5.117-.121-.181-.006-.338.023-.479.075-3.783-.329-7.612-1.086-11.233-1.477-6.585-.711-13.223-1.371-19.689-2.854l-.827-.191c.068-4.268-.874-8.503-3.938-11.682-2.356-2.442-7.555-6.45-11.182-6.553-6.242-.176-.557 11.857 1.279 14.078 2.697 3.262 6.756 5.208 11.225 6.458-.379 4.078-1.475 8.086-1.888 12.157-.324 3.202.085 6.296.593 9.457 1.625 10.121 4.031 20.107 5.818 30.2 3.481 19.676.936 39.475 1.698 59.35.103 2.732.107 5.612.771 8.282.388 1.56 2.799.9 2.41-.665-.9-3.621-.711-7.664-.791-11.366-.123-5.768-.097-11.539-.019-17.307.134-9.969 1.078-19.938-.227-29.856-1.495-11.36-4.121-22.536-6.262-33.783-.727-3.824-1.645-7.778-1.656-11.689-.013-4.769 1.438-9.433 1.97-14.17 5.508 1.221 11.372 1.582 15.97 2.111 5.365.617 10.753 1.596 16.046 1.841.125.045.258.079.411.084 14.434.495 28.916.332 43.348-.1 26.7-.801 53.767-2.534 79.923-8.24 11.764-2.566 24.01-5.911 34.178-12.592 1.34-.88.088-3.046-1.262-2.159">
        </path></g> 
      </svg>